<svg width="266" height="266" viewBox="0 0 266 266" fill="none" xmlns="http://www.w3.org/2000/svg">
<circle cx="133" cy="133" r="120.5" fill="#F5C23D" stroke="#CD970B" stroke-width="25"/>
<path d="M167.271 119.623C167.271 124.75 166.978 129.877 166.392 135.004C165.854 140.082 164.854 144.94 163.389 149.579C161.973 154.218 160.02 158.563 157.529 162.616C155.088 166.62 151.963 170.087 148.154 173.017C144.395 175.946 139.854 178.266 134.531 179.975C129.258 181.635 123.057 182.465 115.928 182.465C114.902 182.465 113.779 182.44 112.559 182.392C111.338 182.343 110.093 182.27 108.823 182.172C107.603 182.123 106.406 182.025 105.234 181.879C104.062 181.781 103.037 181.635 102.158 181.439V163.275C103.965 163.764 105.894 164.154 107.944 164.447C110.044 164.691 112.168 164.813 114.316 164.813C120.908 164.813 126.328 164.008 130.576 162.396C134.824 160.736 138.193 158.441 140.684 155.512C143.174 152.533 144.932 148.993 145.957 144.892C147.031 140.79 147.69 136.273 147.935 131.342H146.982C146.006 133.1 144.834 134.735 143.467 136.249C142.1 137.763 140.488 139.081 138.633 140.204C136.777 141.327 134.678 142.206 132.334 142.841C129.99 143.476 127.378 143.793 124.497 143.793C119.858 143.793 115.684 143.036 111.973 141.522C108.262 140.009 105.112 137.812 102.524 134.931C99.9854 132.05 98.0322 128.51 96.665 124.311C95.2979 120.111 94.6143 115.302 94.6143 109.882C94.6143 104.071 95.4199 98.8711 97.0312 94.2812C98.6914 89.6914 101.035 85.8096 104.062 82.6357C107.09 79.4131 110.752 76.9473 115.049 75.2383C119.395 73.5293 124.253 72.6748 129.624 72.6748C134.897 72.6748 139.829 73.627 144.419 75.5312C149.009 77.3867 152.988 80.2432 156.357 84.1006C159.727 87.958 162.388 92.8408 164.341 98.749C166.294 104.657 167.271 111.615 167.271 119.623ZM130.063 90.8389C128.062 90.8389 126.23 91.2051 124.57 91.9375C122.91 92.6699 121.47 93.8174 120.249 95.3799C119.077 96.8936 118.149 98.8467 117.466 101.239C116.831 103.583 116.514 106.366 116.514 109.589C116.514 114.765 117.612 118.866 119.81 121.894C122.007 124.921 125.327 126.435 129.771 126.435C132.017 126.435 134.067 125.995 135.923 125.116C137.778 124.237 139.365 123.09 140.684 121.674C142.002 120.258 143.003 118.671 143.687 116.913C144.419 115.155 144.785 113.373 144.785 111.566C144.785 109.076 144.468 106.61 143.833 104.169C143.247 101.679 142.319 99.457 141.05 97.5039C139.829 95.502 138.291 93.8906 136.436 92.6699C134.629 91.4492 132.505 90.8389 130.063 90.8389Z" fill="white"/>
</svg>
