<svg width="310" height="290" viewBox="0 0 310 290" fill="none" xmlns="http://www.w3.org/2000/svg">
<g clip-path="url(#clip0_517_35)">
<path d="M66.5 175.5C62.1 167.9 29.3333 170.667 13.5 173V226C23.3333 226.167 45.8 226.9 57 228.5C71 230.5 66.5 240 66.5 252.5C66.5 265 77.5 276.5 79 283.5C80.5 290.5 93.5 262.5 109.5 250.5C122.3 240.9 134.5 235.167 139 233.5H252.5C281 233.5 296 224.5 302 217C306.8 211 304 185.833 302 174C248.167 173.667 137.7 173.2 126.5 174C112.5 175 90 222.5 74.5 235.5C59 248.5 72 185 66.5 175.5Z" fill="#858585" stroke="black"/>
<path d="M128.04 234.987L128.039 234.988L81.5373 279.402L81.5367 279.402C79.7996 281.061 77.4297 281.415 75.2311 280.545C73.0581 279.685 71.9831 278.053 71.9831 276.161V245.279C71.9831 235.245 63.5975 227.88 54.2352 227.88H31.0056C18.9653 227.88 10.0022 218.674 10 208.257C10 208.256 10 208.255 10 208.253L10.1408 30.6212V30.6133C10.1408 20.2874 19.1912 11 31.1605 11H279.008C290.966 11 300 20.2759 300 30.6133V208.267C300 218.615 290.969 227.88 279.008 227.88H145.911C139.299 227.88 132.871 230.375 128.04 234.987Z" stroke="#D7DAE0" stroke-width="20"/>
<path d="M117.857 181.502L117.646 181.717L117.448 181.945L73.5826 232.486C73.3637 231.883 73.1483 231.197 72.9483 230.426C72.3359 228.066 71.9831 225.346 71.9831 222.637V189.626C71.9831 179.935 64.23 171.717 54.2352 171.717H31.0056C19.5962 171.717 10 162.218 10 150.047V31.5C10 18.3355 18.1749 10 28.5 10H279.008C291.76 10 300 17.7689 300 28.5V150.061C300 162.158 290.336 171.717 279.008 171.717H138.5C133.959 171.717 129.547 173.604 126.622 175.154C123.461 176.83 120.21 179.1 117.857 181.502ZM71.172 235.109C71.172 235.108 71.1826 235.101 71.2036 235.089C71.1824 235.103 71.1719 235.109 71.172 235.109ZM75.1597 235.525C75.1858 235.549 75.1986 235.563 75.1985 235.564C75.1983 235.565 75.1853 235.553 75.1597 235.525Z" stroke="#D7DAE0" stroke-width="20"/>
<path d="M62 223H79V278C79 280.761 76.7614 283 74 283H69C65.134 283 62 279.866 62 276V223Z" fill="#D7DAE0"/>
<path d="M148.008 45.6875L116.719 138.324H104.18L135.469 45.6875H148.008ZM156.914 90.4531L169.746 74.457L151.113 69.1836L154.629 58.8711L172.91 66.1367L171.797 45.6875H183.164L181.934 66.5469L199.863 59.3398L203.32 69.8281L184.395 75.1016L196.816 90.7461L187.617 97.1914L176.836 80.082L166.113 96.6641L156.914 90.4531Z" fill="#D7DAE0"/>
</g>
<defs>
<clipPath id="clip0_517_35">
<rect width="310" height="290" fill="white"/>
</clipPath>
</defs>
</svg>
