<svg width="310" height="290" viewBox="0 0 310 290" fill="none" xmlns="http://www.w3.org/2000/svg">
<g clip-path="url(#clip0_514_25)">
<path d="M66.5 175.5C62.1 167.9 29.3333 170.667 13.5 173V226C23.3333 226.167 45.8 226.9 57 228.5C71 230.5 66.5 240 66.5 252.5C66.5 265 77.5 276.5 79 283.5C80.5 290.5 93.5 262.5 109.5 250.5C122.3 240.9 134.5 235.167 139 233.5H252.5C281 233.5 296 224.5 302 217C306.8 211 304 185.833 302 174C248.167 173.667 137.7 173.2 126.5 174C112.5 175 90 222.5 74.5 235.5C59 248.5 72 185 66.5 175.5Z" fill="#858585" stroke="black"/>
<path d="M129.076 236.072L129.075 236.073L82.5733 280.486L82.5728 280.487C80.3639 282.597 77.3572 282.999 74.6792 281.94C72.023 280.888 70.4831 278.759 70.4831 276.161V245.279C70.4831 236.138 62.8347 229.38 54.2352 229.38H31.0056C18.2013 229.38 8.50164 219.565 8.5 208.256C8.5 208.255 8.5 208.254 8.5 208.253L8.64081 30.62V30.6133C8.64081 19.3939 18.4294 9.5 31.1605 9.5H279.008C291.729 9.5 301.5 19.3841 301.5 30.6133V208.267C301.5 219.507 291.732 229.38 279.008 229.38H145.911C139.674 229.38 133.62 231.733 129.076 236.072Z" stroke="#D7DAE0" stroke-width="17"/>
<path d="M118.928 182.551L118.749 182.735L118.581 182.928L73.1721 235.247C71.7587 232.692 70.4831 227.984 70.4831 222.637V189.626C70.4831 180.734 63.3723 173.217 54.2352 173.217H31.0056C18.7377 173.217 8.5 163.016 8.5 150.047V31.5C8.5 17.6993 17.1664 8.5 28.5 8.5H279.008C292.405 8.5 301.5 16.7677 301.5 28.5V150.061C301.5 162.956 291.194 173.217 279.008 173.217H138.5C134.332 173.217 130.185 174.964 127.325 176.48C124.263 178.102 121.147 180.287 118.928 182.551ZM71.8953 236.418C71.8953 236.416 71.9128 236.406 71.9473 236.392C71.9125 236.412 71.8952 236.419 71.8953 236.418ZM74.1483 236.634C74.1766 236.654 74.1904 236.667 74.1902 236.668C74.1901 236.669 74.1759 236.659 74.1483 236.634Z" stroke="#D7DAE0" stroke-width="17"/>
<path d="M62 223H79V278C79 280.761 76.7614 283 74 283H69C65.134 283 62 279.866 62 276V223Z" fill="#D7DAE0"/>
<path d="M148.008 45.6875L116.719 138.324H104.18L135.469 45.6875H148.008ZM156.914 90.4531L169.746 74.457L151.113 69.1836L154.629 58.8711L172.91 66.1367L171.797 45.6875H183.164L181.934 66.5469L199.863 59.3398L203.32 69.8281L184.395 75.1016L196.816 90.7461L187.617 97.1914L176.836 80.082L166.113 96.6641L156.914 90.4531Z" fill="#D7DAE0"/>
</g>
<defs>
<clipPath id="clip0_514_25">
<rect width="310" height="290" fill="white"/>
</clipPath>
</defs>
</svg>
