<svg width="310" height="290" viewBox="0 0 310 290" fill="none" xmlns="http://www.w3.org/2000/svg">
<g clip-path="url(#clip0_517_84)">
<path d="M127.349 234.264L127.348 234.265L80.8466 278.678L80.8459 278.679C79.4234 280.038 77.478 280.358 75.599 279.615C73.7482 278.883 72.9831 277.583 72.9831 276.161V245.279C72.9831 234.65 64.106 226.88 54.2352 226.88H31.0056C19.4743 226.88 11.002 218.079 11 208.257C11 208.256 11 208.255 11 208.253L11.1408 30.622V30.6133C11.1408 20.883 19.6991 12 31.1605 12H279.008C290.457 12 299 20.8704 299 30.6133V208.267C299 218.02 290.46 226.88 279.008 226.88H145.911C139.048 226.88 132.371 229.469 127.349 234.264Z" stroke="#D7DAE0" stroke-width="22"/>
<path d="M117.143 180.802L116.91 181.039L116.693 181.29L73.9978 230.482C73.9704 230.381 73.9432 230.279 73.9162 230.175C73.3258 227.899 72.9831 225.264 72.9831 222.637V189.626C72.9831 179.403 64.8018 170.717 54.2352 170.717H31.0056C20.1685 170.717 11 161.686 11 150.047V31.5C11 18.7595 18.8472 11 28.5 11H279.008C291.331 11 299 18.4363 299 28.5V150.061C299 161.625 289.764 170.717 279.008 170.717H138.5C133.711 170.717 129.121 172.698 126.154 174.271C122.926 175.981 119.585 178.309 117.143 180.802ZM70.6269 234.272C70.6269 234.272 70.6326 234.268 70.6436 234.26C70.6324 234.269 70.6269 234.272 70.6269 234.272ZM75.8856 234.837C75.908 234.859 75.9191 234.872 75.919 234.873C75.9189 234.874 75.9077 234.863 75.8856 234.837Z" stroke="#D7DAE0" stroke-width="22"/>
<path d="M62 223H79V278C79 280.761 76.7614 283 74 283H69C65.134 283 62 279.866 62 276V223Z" fill="#D7DAE0"/>
</g>
<defs>
<clipPath id="clip0_517_84">
<rect width="310" height="290" fill="white"/>
</clipPath>
</defs>
</svg>
