<svg width="252" height="200" viewBox="0 0 252 200" fill="none" xmlns="http://www.w3.org/2000/svg">
<g clip-path="url(#clip0_533_2)">
<path d="M91.5824 9.00024C88.2288 9.01371 60.4859 9.79853 31.2185 31.4745C31.2185 31.4745 0 87.4407 0 156.372C0 156.372 18.2105 187.487 66.1223 189C66.1223 189 74.1437 179.492 80.6475 171.281C53.1145 163.07 42.7084 146 42.7084 146C42.7084 146 44.8768 147.512 48.7791 149.673C48.9959 149.673 49.2121 149.889 49.6456 150.105C50.296 150.537 50.9466 150.753 51.597 151.185C57.0169 154.211 62.4366 156.588 67.4229 158.533C76.3115 162.206 86.9348 165.447 99.2921 167.824C115.552 170.849 134.629 171.929 155.442 168.04C165.631 166.095 176.038 163.286 186.878 158.748C194.466 155.939 202.92 151.834 211.809 146C211.809 146 200.969 163.503 172.569 171.498C179.073 179.493 186.878 188.784 186.878 188.784C234.79 187.272 253 156.156 253 156.372C253 87.4407 221.781 31.4745 221.781 31.4745C190.78 8.35346 161.078 9.00192 161.078 9.00192L158.044 12.4592C194.899 23.4795 212.026 39.6862 212.026 39.6862C189.479 27.5855 167.366 21.5347 146.771 19.1578C131.161 17.4291 116.202 17.8618 102.977 19.5904C101.677 19.5904 100.593 19.8062 99.2921 20.0223C91.7043 20.8866 73.2769 23.4794 50.0798 33.6354C42.0583 37.0927 37.2884 39.6862 37.2884 39.6862C37.2884 39.6862 55.0656 22.615 94.0888 11.5947L91.9208 9.00192C91.9208 9.00192 91.806 8.99935 91.5824 9.00016V9.00024ZM86.0675 88.7372C98.4248 88.7372 108.398 99.325 108.181 112.506C108.181 125.687 98.4248 136.276 86.0675 136.276C73.927 136.276 63.9543 125.687 63.9543 112.506C63.9543 99.325 73.7102 88.7372 86.0675 88.7372ZM165.198 88.7372C177.338 88.7372 187.311 99.325 187.311 112.506C187.311 125.687 177.555 136.276 165.198 136.276C153.057 136.276 143.085 125.687 143.085 112.506C143.085 99.325 152.84 88.7372 165.198 88.7372Z" fill="#7289DA"/>
</g>
<defs>
<clipPath id="clip0_533_2">
<rect width="252" height="200" fill="white"/>
</clipPath>
</defs>
</svg>
